<?xml version="1.0" standalone="no"?>
<!DOCTYPE svg PUBLIC "-//W3C//DTD SVG 20010904//EN"
 "http://www.w3.org/TR/2001/REC-SVG-20010904/DTD/svg10.dtd">
<svg version="1.0" xmlns="http://www.w3.org/2000/svg"
 width="417.000000pt" height="417.000000pt" viewBox="0 0 417.000000 417.000000"
 preserveAspectRatio="xMidYMid meet">
<metadata>
Created by potrace 1.13, written by Peter Selinger 2001-2015
</metadata>
<g transform="translate(0.000000,417.000000) scale(0.100000,-0.100000)"
fill="#000000" stroke="none">
<path d="M1755 4040 c-416 -75 -762 -254 -1056 -549 -218 -219 -370 -458 -469
-737 -55 -156 -110 -418 -110 -523 l0 -51 149 0 150 0 -19 44 c-42 94 -54 165
-54 316 0 160 14 231 64 329 69 135 183 188 344 160 104 -18 156 -71 197 -199
l17 -55 1 123 1 122 186 0 c105 0 205 -5 230 -11 57 -15 97 -54 123 -122 l20
-52 0 93 1 92 705 0 705 0 0 -360 0 -360 150 0 150 0 0 -49 c0 -48 0 -49 35
-53 20 -2 38 -2 40 1 3 2 5 60 5 129 l0 125 -120 277 c-66 153 -120 281 -120
284 0 3 47 6 104 6 l105 0 62 -161 63 -161 62 159 62 158 107 3 c84 2 106 0
102 -10 -3 -7 -57 -134 -121 -281 l-116 -268 0 -199 c0 -141 -3 -199 -12 -202
-7 -3 -9 -14 -4 -32 7 -28 8 -27 35 30 16 32 39 69 52 81 60 55 172 75 265 48
97 -28 149 -99 169 -232 6 -37 4 -43 -12 -44 -10 0 -51 -4 -91 -8 l-73 -7 -11
43 c-26 103 -148 111 -148 10 0 -43 18 -59 101 -90 98 -37 129 -55 176 -99
l41 -41 7 49 c3 27 10 65 15 85 13 47 13 423 0 486 -67 331 -94 421 -185 611
-282 585 -804 981 -1444 1092 -154 27 -487 27 -636 0z"/>
<path d="M612 2804 c-38 -26 -63 -90 -73 -187 -10 -94 0 -216 21 -272 28 -74
95 -107 164 -81 63 24 88 55 84 102 l-3 39 -62 3 -63 3 0 99 0 100 145 0 145
0 0 75 c0 41 -3 75 -8 75 -4 0 -46 -11 -94 -24 l-87 -24 -11 31 c-18 52 -48
77 -95 77 -22 0 -51 -7 -63 -16z"/>
<path d="M1160 2724 l0 -97 66 6 c86 6 108 26 108 96 0 74 -19 91 -106 91
l-68 0 0 -96z"/>
<path d="M1720 2563 c0 -136 4 -243 8 -237 5 5 53 81 107 169 54 88 120 195
147 238 l48 77 -155 0 -155 0 0 -247z"/>
<path d="M2147 2638 c-58 -95 -133 -217 -166 -271 l-61 -98 142 3 141 3 164
264 c89 145 163 265 163 267 0 2 -62 4 -138 4 l-139 0 -106 -172z"/>
<path d="M2687 2693 c-30 -49 -100 -161 -156 -251 -55 -90 -101 -165 -101
-168 0 -2 72 -4 160 -4 l160 0 0 255 c0 140 -2 255 -4 255 -3 0 -29 -39 -59
-87z"/>
<path d="M1511 2624 c-17 -50 -55 -101 -92 -123 l-29 -18 26 -24 c30 -28 63
-90 90 -169 l19 -55 3 108 c1 59 1 155 0 214 -3 104 -3 105 -17 67z"/>
<path d="M1160 2358 c0 -51 3 -150 7 -220 l6 -127 22 47 c20 42 85 113 113
123 7 3 -2 40 -23 101 -41 117 -59 154 -80 162 -42 16 -45 10 -45 -86z"/>
<path d="M929 2154 c-33 -36 -101 -82 -132 -90 l-27 -6 0 -264 c0 -284 5 -315
51 -348 57 -39 121 -10 144 67 23 78 19 667 -5 667 -3 0 -17 -12 -31 -26z"/>
<path d="M1880 1640 l0 -420 -95 0 -95 0 0 88 -1 87 -32 -59 c-38 -72 -89
-111 -163 -126 -151 -32 -279 35 -321 167 -19 59 -22 58 -46 -7 -40 -109 -119
-163 -237 -164 -137 -1 -211 37 -261 136 l-22 42 -19 -42 c-39 -81 -115 -122
-228 -122 -22 0 -40 -2 -40 -5 0 -3 21 -43 46 -88 201 -355 484 -625 839 -801
168 -83 312 -134 490 -173 102 -22 153 -26 337 -30 229 -5 306 2 493 47 482
116 902 412 1178 830 61 92 117 190 117 204 0 3 -15 2 -33 -1 -49 -8 -146 14
-189 42 -21 14 -50 47 -66 74 l-28 49 -23 -44 c-46 -86 -152 -134 -264 -119
-78 11 -124 33 -162 78 l-35 41 0 -52 0 -52 -356 2 -355 3 -112 254 -112 254
-3 -257 -2 -256 -90 0 -90 0 0 420 c0 273 -3 420 -10 420 -7 0 -10 -147 -10
-420z"/>
<path d="M2140 2050 c0 -10 143 -340 160 -369 6 -10 10 56 10 182 l0 197 -85
0 c-50 0 -85 -4 -85 -10z"/>
<path d="M1370 2002 c-26 -21 -34 -82 -13 -103 6 -6 54 -28 108 -49 114 -46
157 -76 196 -138 l29 -46 0 122 0 122 -82 -6 c-46 -4 -87 -7 -92 -8 -4 0 -14
20 -22 45 -16 53 -29 66 -70 75 -21 4 -37 0 -54 -14z"/>
<path d="M3195 1995 c-30 -29 -32 -68 -6 -94 10 -10 54 -32 99 -49 174 -66
222 -124 244 -286 3 -17 10 -19 65 -17 l61 2 7 -39 c12 -72 57 -122 111 -122
9 0 29 13 45 29 22 23 29 39 29 69 0 55 -36 95 -106 121 -156 59 -227 133
-241 252 l-6 50 -36 -5 c-20 -3 -56 -7 -81 -8 -38 -2 -45 0 -48 17 -8 40 -34
83 -58 94 -37 16 -52 14 -79 -14z"/>
<path d="M240 1895 l0 -98 61 6 c79 7 94 22 94 92 0 72 -16 87 -95 93 l-60 4
0 -97z"/>
<path d="M2697 1974 c-4 -4 -7 -40 -7 -81 l0 -73 150 0 150 0 0 -95 0 -95
-150 0 -150 0 0 -95 0 -95 145 0 146 0 -7 49 -6 49 74 7 c102 10 111 7 120
-38 12 -58 34 -93 67 -107 44 -18 82 -2 105 45 17 35 18 42 5 79 -15 43 -29
52 -168 114 -114 51 -171 137 -176 266 l-3 71 -144 3 c-79 1 -147 -1 -151 -4z"/>
<path d="M1170 1680 l0 -142 38 6 c20 3 55 7 77 8 39 3 39 3 47 -41 9 -51 28
-84 63 -107 58 -38 131 22 121 99 -6 53 -25 70 -117 109 -108 45 -167 91 -201
157 l-28 53 0 -142z"/>
<path d="M240 1525 l0 -95 70 0 c89 0 110 18 110 96 0 72 -27 94 -116 94 l-64
0 0 -95z"/>
</g>
</svg>
